<svg xmlns="http://www.w3.org/2000/svg" width="1600" height="1000" viewBox="0 0 1600 1000" fill="none">
  <defs>
    <linearGradient id="bg" x1="0" y1="0" x2="1" y2="1">
      <stop offset="0%" stop-color="#E6F7E2"/>
      <stop offset="55%" stop-color="#C7EFC0"/>
      <stop offset="100%" stop-color="#9FE39C"/>
    </linearGradient>
    <linearGradient id="card" x1="0" y1="0" x2="1" y2="1">
      <stop offset="0%" stop-color="rgba(255,255,255,0.95)"/>
      <stop offset="100%" stop-color="rgba(255,255,255,0.72)"/>
    </linearGradient>
  </defs>
  <rect width="1600" height="1000" rx="0" fill="url(#bg)"/>
  <circle cx="1280" cy="180" r="220" fill="rgba(255,255,255,0.16)"/>
  <circle cx="220" cy="820" r="180" fill="rgba(255,255,255,0.14)"/>
  <rect x="120" y="120" width="620" height="760" rx="56" fill="rgba(255,255,255,0.18)"/>
  <rect x="860" y="130" width="470" height="470" rx="80" fill="rgba(255,255,255,0.22)"/>
  <rect x="920" y="220" width="350" height="260" rx="44" fill="rgba(255,255,255,0.28)"/>
  <rect x="960" y="520" width="280" height="34" rx="17" fill="rgba(22,35,100,0.16)"/>
  <rect x="1120" y="320" width="70" height="150" rx="24" fill="#FFFFFF" fill-opacity="0.72"/>
  <rect x="1020" y="360" width="70" height="110" rx="24" fill="#FFFFFF" fill-opacity="0.72"/>
  <rect x="760" y="720" width="640" height="150" rx="34" fill="url(#card)"/>
  <text x="180" y="260" fill="#162364" font-family="Arial, Helvetica, sans-serif" font-size="52" font-weight="700" letter-spacing="7">AMARTOY</text>
  <text x="180" y="340" fill="#162364" font-family="Arial, Helvetica, sans-serif" font-size="106" font-weight="800">Preschool Guide</text>
  <text x="180" y="420" fill="#304070" font-family="Arial, Helvetica, sans-serif" font-size="38">Choosing the best early learning path</text>
  <text x="820" y="790" fill="#162364" font-family="Arial, Helvetica, sans-serif" font-size="34" font-weight="700">Toys and Games Collection</text>
  <text x="820" y="840" fill="#4A557E" font-family="Arial, Helvetica, sans-serif" font-size="26">Dummy image for layout preview</text>
</svg>
